<svg width="231" height="135" viewBox="0 0 231 135" fill="none" xmlns="http://www.w3.org/2000/svg">
<path d="M104.42 89.6899V77.4199H104.944V84.1275C105.238 83.5277 105.696 83.0478 106.318 82.6878C106.95 82.3279 107.605 82.148 108.281 82.148C109.361 82.148 110.277 82.5297 111.03 83.2932C111.793 84.0457 112.175 84.951 112.175 86.0089C112.175 87.0669 111.793 87.9776 111.03 88.7411C110.277 89.4936 109.361 89.8699 108.281 89.8699C107.627 89.8699 106.989 89.6954 106.367 89.3464C105.745 88.9865 105.271 88.5066 104.944 87.9067V89.6899H104.42ZM104.911 86.0253C104.911 86.9415 105.244 87.7376 105.909 88.4139C106.585 89.0792 107.381 89.4118 108.297 89.4118C109.224 89.4118 110.015 89.0792 110.67 88.4139C111.324 87.7376 111.651 86.9415 111.651 86.0253C111.651 85.0982 111.319 84.2966 110.653 83.6204C109.999 82.9442 109.214 82.606 108.297 82.606C107.381 82.606 106.585 82.9496 105.909 83.6367C105.244 84.3129 104.911 85.1091 104.911 86.0253ZM117.415 89.8863H117.268C116.232 89.8863 115.327 89.4991 114.552 88.7247C113.789 87.9394 113.407 87.0287 113.407 85.9926C113.407 84.9564 113.789 84.0621 114.552 83.3095C115.316 82.5461 116.259 82.1643 117.383 82.1643C118.506 82.1643 119.471 82.6115 120.278 83.5058L115.141 88.5775C115.85 89.1446 116.532 89.4282 117.186 89.4282C117.841 89.4282 118.424 89.2809 118.937 88.9865C119.46 88.6811 119.891 88.2775 120.229 87.7758V88.6102C119.455 89.4609 118.517 89.8863 117.415 89.8863ZM117.235 82.6224C116.374 82.6224 115.605 82.9605 114.929 83.6367C114.263 84.302 113.931 85.071 113.931 85.9435C113.931 86.816 114.22 87.5795 114.798 88.2339L119.559 83.5058C118.882 82.9169 118.108 82.6224 117.235 82.6224ZM129.18 82.3279V89.6899H128.657V87.8576C128.351 88.4793 127.893 88.9701 127.282 89.33C126.672 89.6899 126.017 89.8699 125.319 89.8699C124.25 89.8699 123.334 89.4936 122.571 88.7411C121.807 87.9776 121.426 87.0669 121.426 86.0089C121.426 84.951 121.807 84.0457 122.571 83.2932C123.334 82.5297 124.25 82.148 125.319 82.148C126.017 82.148 126.683 82.3334 127.315 82.7042C127.959 83.075 128.406 83.5658 128.657 84.1766V82.3279H129.18ZM121.949 86.0253C121.949 86.9415 122.282 87.7376 122.947 88.4139C123.623 89.0792 124.419 89.4118 125.336 89.4118C126.263 89.4118 127.053 89.0792 127.708 88.4139C128.362 87.7376 128.689 86.9415 128.689 86.0253C128.689 85.0982 128.357 84.2966 127.691 83.6204C127.037 82.9442 126.252 82.606 125.336 82.606C124.419 82.606 123.623 82.9496 122.947 83.6367C122.282 84.3129 121.949 85.1091 121.949 86.0253ZM137.071 82.3279H137.595V89.6899H137.071V88.2012C136.515 89.3137 135.566 89.8699 134.225 89.8699C133.308 89.8699 132.54 89.5536 131.918 88.921C131.296 88.2884 130.985 87.5195 130.985 86.6143V82.3279H131.509V86.6143C131.509 87.3668 131.771 88.0212 132.294 88.5775C132.829 89.1337 133.472 89.4118 134.225 89.4118C134.977 89.4118 135.637 89.1337 136.204 88.5775C136.782 88.0212 137.071 87.3668 137.071 86.6143V82.3279ZM142.027 89.33V89.7881C141.252 89.7881 140.593 89.5318 140.047 89.0192C139.502 88.4957 139.229 87.8304 139.229 87.0233V79.3668H139.753V82.3443H142.01V82.8024H139.753V87.0233C139.753 87.6886 139.971 88.2394 140.407 88.6756C140.854 89.1119 141.394 89.33 142.027 89.33ZM149.261 82.3279H149.785V89.4609C149.785 90.4316 149.447 91.2551 148.771 91.9313C148.094 92.6075 147.265 92.9456 146.284 92.9456C145.106 92.9456 144.173 92.493 143.486 91.5877L143.519 90.7697C143.824 91.2932 144.223 91.7077 144.713 92.0131C145.215 92.3294 145.739 92.4875 146.284 92.4875C147.091 92.4875 147.789 92.193 148.378 91.6041C148.967 91.026 149.261 90.328 149.261 89.51V88.2666C148.727 89.3355 147.794 89.8699 146.464 89.8699C145.559 89.8699 144.784 89.5536 144.141 88.921C143.497 88.2775 143.175 87.5086 143.175 86.6143V82.3279H143.699V86.6143C143.699 87.3668 143.972 88.0212 144.517 88.5775C145.073 89.1337 145.728 89.4118 146.48 89.4118C147.233 89.4118 147.882 89.1337 148.427 88.5775C148.983 88.0212 149.261 87.3668 149.261 86.6143V82.3279ZM160.1 89.3791V89.8372C159.326 89.8372 158.666 89.5809 158.121 89.0683C157.575 88.5447 157.303 87.8794 157.303 87.0723V77.4199H157.826V87.0723C157.826 87.7376 158.044 88.2884 158.481 88.7247C158.928 89.161 159.468 89.3791 160.1 89.3791ZM168.099 82.3279V89.6899H167.576V87.8576C167.27 88.4793 166.812 88.9701 166.201 89.33C165.591 89.6899 164.936 89.8699 164.238 89.8699C163.169 89.8699 162.253 89.4936 161.49 88.7411C160.726 87.9776 160.345 87.0669 160.345 86.0089C160.345 84.951 160.726 84.0457 161.49 83.2932C162.253 82.5297 163.169 82.148 164.238 82.148C164.936 82.148 165.602 82.3334 166.234 82.7042C166.878 83.075 167.325 83.5658 167.576 84.1766V82.3279H168.099ZM160.868 86.0253C160.868 86.9415 161.201 87.7376 161.866 88.4139C162.542 89.0792 163.338 89.4118 164.255 89.4118C165.182 89.4118 165.972 89.0792 166.627 88.4139C167.281 87.7376 167.608 86.9415 167.608 86.0253C167.608 85.0982 167.276 84.2966 166.61 83.6204C165.956 82.9442 165.171 82.606 164.255 82.606C163.338 82.606 162.542 82.9496 161.866 83.6367C161.201 84.3129 160.868 85.1091 160.868 86.0253ZM170.068 89.6899V77.4199H170.591V84.1275C170.886 83.5277 171.344 83.0478 171.966 82.6878C172.598 82.3279 173.253 82.148 173.929 82.148C175.009 82.148 175.925 82.5297 176.677 83.2932C177.441 84.0457 177.823 84.951 177.823 86.0089C177.823 87.0669 177.441 87.9776 176.677 88.7411C175.925 89.4936 175.009 89.8699 173.929 89.8699C173.275 89.8699 172.636 89.6954 172.015 89.3464C171.393 88.9865 170.919 88.5066 170.591 87.9067V89.6899H170.068ZM170.559 86.0253C170.559 86.9415 170.891 87.7376 171.557 88.4139C172.233 89.0792 173.029 89.4118 173.945 89.4118C174.872 89.4118 175.663 89.0792 176.317 88.4139C176.972 87.7376 177.299 86.9415 177.299 86.0253C177.299 85.0982 176.966 84.2966 176.301 83.6204C175.647 82.9442 174.861 82.606 173.945 82.606C173.029 82.606 172.233 82.9496 171.557 83.6367C170.891 84.3129 170.559 85.1091 170.559 86.0253ZM182.802 89.8699C181.755 89.8699 180.855 89.4827 180.102 88.7083C179.35 87.9231 178.973 87.0123 178.973 85.9762C178.973 84.9401 179.355 84.0457 180.119 83.2932C180.882 82.5297 181.798 82.148 182.867 82.148C183.947 82.148 184.863 82.5297 185.615 83.2932C186.379 84.0457 186.761 84.9455 186.761 85.9926C186.761 87.0287 186.39 87.934 185.648 88.7083C184.907 89.4827 184.007 89.8699 182.949 89.8699H182.802ZM186.237 86.0253C186.237 85.0982 185.905 84.2966 185.239 83.6204C184.585 82.9442 183.8 82.606 182.883 82.606C181.967 82.606 181.171 82.9496 180.495 83.6367C179.829 84.3129 179.497 85.1091 179.497 86.0253C179.497 86.9415 179.829 87.7376 180.495 88.4139C181.171 89.0792 181.967 89.4118 182.883 89.4118C183.81 89.4118 184.601 89.0792 185.256 88.4139C185.91 87.7376 186.237 86.9415 186.237 86.0253ZM192.616 83.3259C192.136 82.846 191.607 82.606 191.029 82.606C190.451 82.606 189.938 82.8242 189.491 83.2604C189.055 83.6967 188.837 84.2039 188.837 84.7819V89.6899H188.313V82.3279H188.837V83.424C189.033 83.0532 189.338 82.7478 189.753 82.5079C190.167 82.2679 190.631 82.148 191.144 82.148C191.656 82.148 192.147 82.3225 192.616 82.6715V83.3259ZM201.347 82.3279V89.6899H200.823V87.8576C200.518 88.4793 200.06 88.9701 199.449 89.33C198.838 89.6899 198.184 89.8699 197.486 89.8699C196.417 89.8699 195.501 89.4936 194.737 88.7411C193.974 87.9776 193.592 87.0669 193.592 86.0089C193.592 84.951 193.974 84.0457 194.737 83.2932C195.501 82.5297 196.417 82.148 197.486 82.148C198.184 82.148 198.849 82.3334 199.482 82.7042C200.125 83.075 200.572 83.5658 200.823 84.1766V82.3279H201.347ZM194.115 86.0253C194.115 86.9415 194.448 87.7376 195.113 88.4139C195.79 89.0792 196.586 89.4118 197.502 89.4118C198.429 89.4118 199.22 89.0792 199.874 88.4139C200.529 87.7376 200.856 86.9415 200.856 86.0253C200.856 85.0982 200.523 84.2966 199.858 83.6204C199.203 82.9442 198.418 82.606 197.502 82.606C196.586 82.606 195.79 82.9496 195.113 83.6367C194.448 84.3129 194.115 85.1091 194.115 86.0253ZM205.949 89.33V89.7881C205.175 89.7881 204.515 89.5318 203.97 89.0192C203.424 88.4957 203.152 87.8304 203.152 87.0233V79.3668H203.675V82.3443H205.933V82.8024H203.675V87.0233C203.675 87.6886 203.893 88.2394 204.33 88.6756C204.777 89.1119 205.317 89.33 205.949 89.33ZM210.681 89.8699C209.634 89.8699 208.734 89.4827 207.981 88.7083C207.229 87.9231 206.852 87.0123 206.852 85.9762C206.852 84.9401 207.234 84.0457 207.998 83.2932C208.761 82.5297 209.677 82.148 210.746 82.148C211.826 82.148 212.742 82.5297 213.495 83.2932C214.258 84.0457 214.64 84.9455 214.64 85.9926C214.64 87.0287 214.269 87.934 213.527 88.7083C212.786 89.4827 211.886 89.8699 210.828 89.8699H210.681ZM214.116 86.0253C214.116 85.0982 213.784 84.2966 213.118 83.6204C212.464 82.9442 211.679 82.606 210.763 82.606C209.846 82.606 209.05 82.9496 208.374 83.6367C207.709 84.3129 207.376 85.1091 207.376 86.0253C207.376 86.9415 207.709 87.7376 208.374 88.4139C209.05 89.0792 209.846 89.4118 210.763 89.4118C211.69 89.4118 212.48 89.0792 213.135 88.4139C213.789 87.7376 214.116 86.9415 214.116 86.0253ZM220.495 83.3259C220.015 82.846 219.486 82.606 218.908 82.606C218.33 82.606 217.817 82.8242 217.37 83.2604C216.934 83.6967 216.716 84.2039 216.716 84.7819V89.6899H216.192V82.3279H216.716V83.424C216.912 83.0532 217.218 82.7478 217.632 82.5079C218.047 82.2679 218.51 82.148 219.023 82.148C219.535 82.148 220.026 82.3225 220.495 82.6715V83.3259ZM227.802 82.3279H228.326V89.4609C228.326 90.4316 227.988 91.2551 227.312 91.9313C226.635 92.6075 225.806 92.9456 224.825 92.9456C223.647 92.9456 222.714 92.493 222.027 91.5877L222.06 90.7697C222.365 91.2932 222.763 91.7077 223.254 92.0131C223.756 92.3294 224.28 92.4875 224.825 92.4875C225.632 92.4875 226.33 92.193 226.919 91.6041C227.508 91.026 227.802 90.328 227.802 89.51V88.2666C227.268 89.3355 226.335 89.8699 225.005 89.8699C224.1 89.8699 223.325 89.5536 222.682 88.921C222.038 88.2775 221.716 87.5086 221.716 86.6143V82.3279H222.24V86.6143C222.24 87.3668 222.513 88.0212 223.058 88.5775C223.614 89.1337 224.269 89.4118 225.021 89.4118C225.774 89.4118 226.423 89.1337 226.968 88.5775C227.524 88.0212 227.802 87.3668 227.802 86.6143V82.3279Z" fill="#FFFBF5"/>
<path d="M60.6293 44.2508L74.6522 72.9697H73.3434L68.0334 62.2749H53.0382L47.803 72.9697H46.6438L60.6293 44.2508ZM60.5171 46.8311L53.5244 61.1905H67.5847L60.5171 46.8311ZM78.5634 44.9239H88.6225V46.0084H79.7974V61.2653H87.1641V62.3497H79.7974V71.8853H88.6225V72.9697H78.5634V44.9239ZM103.66 48.8877C103.087 47.8407 102.302 47.018 101.304 46.4197C100.332 45.8214 99.2353 45.5223 98.0137 45.5223C96.7922 45.5223 95.7451 45.9087 94.8726 46.6815C94.025 47.4294 93.6012 48.4639 93.6012 49.7852V49.9722C93.6012 51.5428 94.4737 52.9762 96.2188 54.2725C96.9667 54.821 97.8018 55.3694 98.7242 55.9179C99.6716 56.4414 100.606 57.0148 101.529 57.638C102.476 58.2363 103.324 58.8845 104.072 59.5825C104.844 60.2556 105.468 61.0908 105.941 62.088C106.44 63.0851 106.689 64.182 106.689 65.3787V65.7526C106.689 68.1209 105.879 70.0031 104.259 71.3992C102.663 72.7952 100.681 73.4932 98.3129 73.4932C95.1967 73.4932 92.7785 72.2094 91.0584 69.6416V67.6223C91.7066 69.0433 92.6539 70.2025 93.9004 71.1C95.1718 71.9725 96.7423 72.4088 98.612 72.4088C100.482 72.4088 102.102 71.8105 103.473 70.6139C104.844 69.4173 105.53 67.8218 105.53 65.8274V65.603C105.53 64.3566 105.206 63.2223 104.558 62.2001C103.91 61.1531 103.099 60.3055 102.127 59.6573C101.155 58.9842 100.095 58.2862 98.9486 57.5632C97.8018 56.8403 96.7423 56.1672 95.7701 55.5439C94.7978 54.9207 93.9876 54.1354 93.3394 53.1881C92.6913 52.2408 92.3672 51.2062 92.3672 50.0844V49.8226C92.3672 48.0775 92.9281 46.7438 94.0499 45.8214C95.1718 44.899 96.5554 44.4378 98.2007 44.4378C100.494 44.4378 102.314 45.2854 103.66 46.9806V48.8877ZM120.403 44.9239V46.0084H114.009V72.9697H112.775V46.0084H106.305V44.9239H120.403ZM144.41 44.9239H145.644V72.9697H144.41V62.2749H125.189V72.9697H123.955V44.9239H125.189V61.1905H144.41V44.9239ZM151.271 44.9239H161.33V46.0084H152.505V61.2653H159.871V62.3497H152.505V71.8853H161.33V72.9697H151.271V44.9239ZM177.115 44.9239V46.0084H170.721V72.9697H169.487V46.0084H163.018V44.9239H177.115ZM180.855 44.9239H182.089V72.9697H180.855V44.9239ZM201.547 73.3811H201.136C198.568 73.3811 196.175 72.708 193.956 71.3618C191.737 70.0156 189.98 68.2331 188.683 66.0144C187.412 63.7707 186.776 61.3899 186.776 58.872C186.776 54.9082 188.21 51.5054 191.077 48.6634C193.944 45.7965 197.371 44.363 201.36 44.363C204.028 44.363 206.558 45.0611 208.951 46.4571V47.8407C206.608 46.2452 204.077 45.4475 201.36 45.4475C197.695 45.4475 194.554 46.7687 191.937 49.4113C189.319 52.0289 188.01 55.1825 188.01 58.872C188.01 62.5367 189.319 65.6903 191.937 68.3328C194.554 70.9754 197.695 72.2966 201.36 72.2966C204.077 72.2966 206.608 71.4989 208.951 69.9034V71.287C206.683 72.683 204.215 73.3811 201.547 73.3811ZM225.302 48.8877C224.728 47.8407 223.943 47.018 222.946 46.4197C221.973 45.8214 220.877 45.5223 219.655 45.5223C218.433 45.5223 217.386 45.9087 216.514 46.6815C215.666 47.4294 215.242 48.4639 215.242 49.7852V49.9722C215.242 51.5428 216.115 52.9762 217.86 54.2725C218.608 54.821 219.443 55.3694 220.365 55.9179C221.313 56.4414 222.248 57.0148 223.17 57.638C224.117 58.2363 224.965 58.8845 225.713 59.5825C226.486 60.2556 227.109 61.0908 227.583 62.088C228.081 63.0851 228.33 64.182 228.33 65.3787V65.7526C228.33 68.1209 227.52 70.0031 225.9 71.3992C224.304 72.7952 222.322 73.4932 219.954 73.4932C216.838 73.4932 214.42 72.2094 212.7 69.6416V67.6223C213.348 69.0433 214.295 70.2025 215.542 71.1C216.813 71.9725 218.384 72.4088 220.253 72.4088C222.123 72.4088 223.743 71.8105 225.115 70.6139C226.486 69.4173 227.171 67.8218 227.171 65.8274V65.603C227.171 64.3566 226.847 63.2223 226.199 62.2001C225.551 61.1531 224.741 60.3055 223.768 59.6573C222.796 58.9842 221.737 58.2862 220.59 57.5632C219.443 56.8403 218.384 56.1672 217.411 55.5439C216.439 54.9207 215.629 54.1354 214.981 53.1881C214.333 52.2408 214.008 51.2062 214.008 50.0844V49.8226C214.008 48.0775 214.569 46.7438 215.691 45.8214C216.813 44.899 218.197 44.4378 219.842 44.4378C222.135 44.4378 223.955 45.2854 225.302 46.9806V48.8877Z" fill="#FFFBF5"/>
<path d="M63.312 84.5269C58.4819 88.0326 53.4959 91.3825 48.3542 94.4208C43.3683 97.4591 37.5254 100.731 31.5267 98.9393C25.4502 97.0696 23.0351 90.6035 20.2305 85.5396C17.4259 80.2421 14.5435 75.0225 11.8168 69.647C8.46688 63.0251 5.58439 55.8578 4.96115 48.379C4.80534 46.8988 4.88325 45.3407 4.72744 43.8605C4.57163 39.342 2.39029 35.2909 1.0659 31.0062C-1.73867 20.7227 1.45543 9.97184 5.27277 0.311627L5.35068 0C5.81811 0.31162 6.36344 0.701152 6.75297 1.09068C17.7376 10.9067 29.5791 19.7879 41.7323 27.9679L41.8881 28.1237C41.6544 28.2016 41.3428 28.2795 41.1091 28.3574C37.9149 28.9027 34.565 29.4481 31.6046 30.7725C29.7349 31.6294 28.021 32.4085 26.9304 33.9665C26.3071 34.8235 26.8524 35.6805 27.7094 36.2258C29.8128 37.3165 32.3837 35.9921 34.2534 34.9793C37.9928 33.3433 42.1997 32.2527 46.3287 32.6422C48.1205 34.9793 50.146 37.3165 51.8599 39.6536L52.0157 39.8094C51.6262 39.8873 51.2367 39.8873 50.8472 40.0431C47.8868 40.8222 45.3159 42.4582 42.4334 43.5489C40.4858 44.0942 37.9149 43.8605 36.201 43.5489C34.9546 43.471 33.6302 43.3152 32.3837 43.1593C28.5664 43.0814 24.749 43.7826 21.0096 44.1721C17.1922 44.5616 13.3749 44.7953 9.63545 45.4186C8.38897 45.6523 7.14249 45.9639 5.89601 46.1197L6.05182 45.1849C7.92154 46.2756 10.1029 46.0418 12.1284 45.6523C13.5307 45.4965 14.5435 44.7174 15.6341 44.0163C16.569 43.5489 17.5818 44.4058 17.8934 45.2628L17.6597 45.3407C17.9713 41.757 17.2701 37.9397 14.3876 35.6026C12.0505 33.8107 8.62268 32.4864 5.50649 32.4085C4.33791 32.3305 2.77981 32.8759 2.31238 33.9665C2.15657 34.5119 2.77981 34.9793 3.24724 35.2909C4.88325 36.3816 6.75296 36.849 8.62268 37.2386C11.8947 37.9397 14.933 39.342 17.6597 41.2117C18.5945 44.1721 19.2178 47.1325 19.3736 50.2487C19.5294 54.066 18.984 57.8834 18.2829 61.7007C17.9713 63.103 17.1143 64.5832 17.8155 65.9855C18.9061 67.9331 21.477 68.6343 23.5804 68.4005C24.9827 68.1668 26.3071 67.3099 26.8524 65.9855L27.3978 66.375C26.6966 66.9203 25.8397 67.232 24.9827 67.232C24.3595 66.8424 24.5932 66.0634 25.0606 65.6739C25.3722 65.4402 25.7618 65.2843 26.1513 65.2064C27.4757 64.8948 29.0338 64.739 30.2024 65.6739C30.7477 66.1413 31.0593 66.7645 31.6826 66.9983C32.8511 67.6215 34.4092 66.7645 34.8767 65.596C35.422 64.3495 34.9546 62.8693 34.4092 61.7786C33.8639 66.7645 33.2407 73.8539 32.8511 78.8398L32.7732 78.7619C34.3313 78.9956 35.8894 78.9956 37.3696 78.8398C39.0835 78.7619 40.7974 78.3724 42.5113 77.905C39.551 81.3328 36.201 84.6048 31.8384 86.085C29.0338 87.0977 25.3722 87.1756 23.1909 84.8385C22.0223 83.6699 21.7107 82.0339 21.8665 80.4758C23.6583 80.32 25.3722 79.6189 27.1641 79.1514C28.9559 78.6061 30.9814 78.2945 32.8511 78.7619C32.2279 79.5409 31.2151 80.0084 30.2803 80.2421C28.8001 80.6316 26.6966 80.4758 25.1385 80.5537C23.8141 80.4758 22.334 80.8653 21.1654 80.0863C19.9968 79.1514 19.9968 77.2817 20.698 76.1131C21.6328 74.3992 24.0479 73.8539 25.6839 75.0225H25.2164C25.8397 74.4771 26.6187 74.0097 27.3978 73.6981C29.8907 72.7632 32.4616 74.0097 34.6429 75.0225C36.1231 75.7236 37.2917 76.5806 38.9277 76.6585C40.0184 76.8922 41.8881 76.7364 42.1997 78.0608C42.2776 78.4503 42.1997 78.8398 42.2776 79.3072C43.3683 87.2535 46.4845 94.7324 50.2239 101.744C53.6517 112.417 53.8855 123.791 54.1192 134.931C53.8076 125.427 53.4959 115.767 51.2367 106.418C50.8472 103.068 49.2891 100.497 47.8868 97.537C46.5624 94.6545 45.4717 91.6162 44.459 88.5779C43.4462 85.5396 42.6672 82.4234 42.1218 79.3072C42.0439 78.9177 41.966 78.5282 41.8102 78.1387C41.4986 77.2817 40.7195 77.4375 39.9405 77.3596C38.694 77.2817 37.5254 77.3596 36.2789 76.9701C34.0976 76.0352 31.9163 75.1783 29.657 74.6329C28.2547 74.2434 26.6966 74.555 25.5281 75.4899L25.2943 75.6457L25.0606 75.4899C23.8921 74.6329 21.8665 74.9446 21.1654 76.3469C20.3863 77.5933 20.8538 79.6968 22.4119 79.6189C23.8141 79.6968 25.9955 79.5409 27.3978 79.5409C29.0338 79.5409 30.7477 79.6968 32.0721 78.5282L32.15 78.8398C28.6443 77.827 25.1385 80.0863 21.7107 80.5537L21.8665 80.3979C21.7107 82.5792 22.8793 84.7606 25.1385 84.9943C31.6046 86.4745 37.6033 82.6572 41.6544 77.827L41.8102 78.1387C38.7719 78.9956 35.5778 79.1514 32.5395 78.684H32.4616V78.6061C33.0848 73.776 33.7081 66.375 34.2534 61.5449C34.9546 62.7135 35.3441 64.1158 34.7987 65.4402C34.3313 66.6866 32.6953 67.6215 31.4488 66.9983C30.8256 66.6866 30.4361 66.0634 29.8907 65.6739C29.3454 65.2843 28.7222 65.2064 28.0989 65.2843C27.242 65.3623 25.7618 65.6739 25.2164 66.375L24.9827 66.2971C26.0734 66.2971 27.0862 65.5181 27.9431 64.8948L27.3978 66.0634C25.606 70.0365 19.2957 69.4912 17.348 65.9855C16.569 64.4274 17.5038 62.8693 17.8934 61.467C18.0492 60.7659 18.205 59.9868 18.3608 59.2078C18.8282 56.1695 19.2957 53.1312 19.1399 50.0929C18.984 47.0546 18.2829 44.0163 17.2701 41.2117C15.3225 40.7443 12.5958 38.8746 10.2587 38.2513C7.53202 37.3944 4.33791 37.0048 2.23448 34.8235C1.37752 33.8886 2.624 32.798 3.48096 32.4864C4.72744 31.8631 6.05182 32.1748 7.37621 32.3306C15.0888 33.7329 19.0619 37.0048 17.8934 45.2628L17.8155 45.5744L17.5818 45.2628C16.9585 44.4058 16.1016 44.0163 15.3225 44.9512C13.6086 46.5872 11.1156 46.8988 8.8564 46.6651C7.76573 46.5093 6.59716 46.3535 5.50649 45.886L3.94839 45.0291C5.7402 44.8733 7.60992 44.7954 9.47964 44.7954C13.297 44.6395 17.1143 44.0942 20.8538 43.7047C23.3467 43.393 25.9176 43.3151 28.4884 43.0035C30.9814 42.614 33.5523 42.1466 36.1231 41.9908C38.0708 42.0687 40.0963 42.0687 41.8881 41.6792C44.459 41.0559 47.1077 40.1989 49.6786 39.8094C50.2239 39.7315 51.1588 39.4978 51.6262 39.342L51.5483 39.5757C49.7565 37.2386 48.0426 34.6677 46.2508 32.4085C44.6148 32.4085 42.9788 32.4085 41.3428 32.7201C38.9277 33.1875 36.5906 34.0445 34.4092 35.213C32.929 36.07 31.5267 37.0049 29.8128 37.2386C28.021 37.6281 25.606 36.6153 25.2943 34.5119C25.2164 32.9538 26.385 31.7852 27.5536 30.9283C31.6046 28.5911 36.4348 28.2016 40.9532 27.5784C41.187 27.5784 41.3428 27.6563 41.5765 27.6563L41.4986 27.8121C29.8128 19.7099 18.4387 10.9846 7.2983 2.10343L6.20763 1.16857C5.81811 0.856954 5.50649 0.545337 5.11696 0.233717L5.50649 0.155808C1.53333 9.58231 -1.42705 20.3332 1.22171 30.5387C2.46819 34.8235 4.72744 38.8746 4.80534 43.471C4.88325 44.9512 4.88325 46.4314 4.96115 47.9116C5.50649 55.3904 8.38897 62.4019 11.661 69.0238C14.3097 74.3213 17.1922 79.6189 19.9968 84.9164C22.8014 89.9023 25.1385 96.3684 31.1372 98.2381C37.058 99.952 42.9009 96.7579 47.8868 93.7976C53.4959 91.3825 58.5598 87.6431 63.312 84.5269Z" fill="#FFFBF5"/>
</svg>
